<svg width="10" height="18" viewBox="0 0 10 18" fill="none" xmlns="http://www.w3.org/2000/svg">
<mask id="path-1-inside-1_36_914" fill="white">
<path fill-rule="evenodd" clip-rule="evenodd" d="M9.94854 17.1426L4.99989 11.4284L0.0512304 17.1426H-4.1008e-05L-4.1008e-05 0L10 0L10 17.1426H9.94854Z"/>
</mask>
<path d="M4.99989 11.4284L5.75582 10.7738L4.99989 9.90091L4.24396 10.7738L4.99989 11.4284ZM9.94854 17.1426L9.19261 17.7973L9.49169 18.1426H9.94854V17.1426ZM0.0512304 17.1426V18.1426H0.50808L0.807159 17.7973L0.0512304 17.1426ZM-4.1008e-05 17.1426L-1.00004 17.1426V18.1426L-4.1008e-05 18.1426V17.1426ZM-4.1008e-05 0V-1L-1.00004 -1V0L-4.1008e-05 0ZM10 0L11 0V-1L10 -1V0ZM10 17.1426V18.1426H11V17.1426H10ZM4.24396 12.0831L9.19261 17.7973L10.7045 16.488L5.75582 10.7738L4.24396 12.0831ZM0.807159 17.7973L5.75582 12.0831L4.24396 10.7738L-0.704699 16.488L0.807159 17.7973ZM0.0512304 16.1426H-4.1008e-05V18.1426H0.0512304V16.1426ZM0.999959 17.1426L0.999959 0L-1.00004 0L-1.00004 17.1426L0.999959 17.1426ZM-4.1008e-05 1L10 1V-1L-4.1008e-05 -1V1ZM9 0L9 17.1426H11L11 0L9 0ZM10 16.1426H9.94854V18.1426H10V16.1426Z" fill="#989898" mask="url(#path-1-inside-1_36_914)"/>
</svg>
